<!DOCTYPE svg PUBLIC "-//W3C//DTD SVG 20010904//EN" "http://www.w3.org/TR/2001/REC-SVG-20010904/DTD/svg10.dtd">
<svg version="1.0" xmlns="http://www.w3.org/2000/svg" width="1067px" height="1600px" viewBox="0 0 10670 16000" preserveAspectRatio="xMidYMid meet">
<g id="layer1" fill="#161616" stroke="none">
 <path d="M5697 15323 c-3 -5 -8 -27 -12 -49 -5 -36 -1 -52 34 -120 22 -44 64 -113 93 -155 29 -42 94 -135 143 -206 50 -72 91 -130 93 -128 5 5 -123 224 -173 295 -78 113 -125 227 -105 259 15 26 55 2 225 -135 94 -75 188 -144 210 -155 98 -46 500 0 795 91 120 37 209 60 232 60 47 0 23 -61 -32 -82 -14 -5 -86 -25 -160 -43 -340 -85 -503 -170 -634 -330 -41 -51 -43 -52 -69 -38 -24 12 -34 12 -79 -2 -28 -8 -86 -15 -127 -15 -59 -1 -72 -3 -58 -11 18 -10 115 -8 212 6 48 7 75 -6 57 -28 -9 -11 -45 -16 -138 -19 -151 -6 -174 -3 -174 25 0 40 -78 96 -244 177 -295 143 -383 170 -571 170 -68 0 -143 23 -159 48 -39 64 338 80 499 21 45 -16 88 -22 175 -25 l115 -3 -85 14 c-47 8 -143 26 -215 40 -90 18 -179 28 -290 32 -179 6 -210 0 -228 -46 -8 -22 -17 -29 -35 -28 -31 2 -54 -29 -32 -43 8 -6 29 -8 46 -5 17 3 46 -1 65 -9 19 -7 86 -16 149 -19 140 -7 237 -31 377 -94 136 -60 146 -83 44 -97 -25 -3 -98 -31 -161 -61 -129 -61 -210 -85 -287 -85 -44 0 -72 10 -175 61 -68 33 -158 76 -202 95 -43 19 -91 43 -106 54 -18 13 -44 20 -74 20 -31 0 -48 5 -54 16 -8 14 -10 14 -15 1 -9 -25 30 -120 60 -145 45 -37 134 -97 181 -121 23 -12 42 -23 42 -25 0 -2 -19 1 -42 7 -30 7 -109 7 -277 -1 -130 -7 -318 -12 -419 -12 l-182 0 -6 -30 c-4 -16 -11 -30 -16 -30 -5 0 -15 14 -21 30 -16 43 -27 37 -27 -13 0 -76 56 -104 164 -82 56 12 103 12 314 0 211 -12 264 -19 362 -44 131 -33 268 -84 303 -111 34 -27 85 -144 177 -405 28 -77 69 -398 95 -735 4 -47 15 -128 25 -180 47 -242 121 -666 134 -765 8 -60 29 -189 46 -285 17 -96 32 -204 33 -240 1 -68 1 -69 -89 -270 -58 -132 -53 -201 26 -320 68 -103 75 -133 73 -330 -2 -166 -35 -722 -73 -1200 -5 -69 -16 -219 -25 -335 -8 -115 -18 -229 -21 -253 -5 -41 -15 -51 -247 -261 -133 -120 -269 -247 -302 -282 -139 -150 -408 -500 -582 -756 -107 -158 -278 -399 -296 -418 -6 -7 -7 0 -3 18 11 47 -5 227 -20 227 -19 0 -102 -98 -210 -249 -54 -75 -141 -194 -195 -266 -53 -71 -108 -153 -122 -182 -28 -54 -76 -225 -78 -272 -1 -56 -18 13 -18 79 -1 67 -16 140 -29 140 -5 0 -12 -4 -17 -10 -7 -6 -9 51 -7 154 3 129 1 170 -12 199 -8 20 -22 37 -30 37 -8 0 -37 -25 -64 -55 -56 -63 -76 -117 -114 -312 l-23 -118 -3 167 c-2 164 -3 168 -26 183 -24 16 -24 18 -19 135 6 118 6 119 -16 113 -20 -5 -21 -2 -21 80 0 138 -21 166 -80 104 -62 -63 -81 -138 -110 -427 -11 -109 -56 -396 -59 -375 -1 6 -6 53 -10 106 -9 102 -30 156 -75 198 -21 20 -28 22 -41 11 -14 -11 -17 -10 -22 8 -13 53 -67 -3 -83 -86 -5 -28 -12 -110 -16 -184 -9 -168 -19 -199 -27 -82 -4 49 -16 123 -28 164 -15 54 -20 95 -17 148 l3 72 -24 -47 c-34 -66 -40 -132 -29 -318 10 -160 -4 -530 -21 -592 l-8 -28 -6 35 c-3 19 -13 96 -22 170 -9 74 -19 151 -23 170 l-6 35 -7 -45 c-4 -25 -12 -124 -19 -222 -15 -201 -8 -257 56 -461 24 -76 34 -127 33 -170 l0 -62 -24 80 c-14 44 -33 107 -43 140 l-19 60 -8 -49 c-9 -58 0 -191 20 -307 42 -233 65 -372 75 -447 19 -143 127 -416 218 -549 69 -102 182 -293 173 -293 -5 0 -20 15 -35 34 -27 35 -93 82 -102 73 -13 -12 176 -267 272 -369 97 -102 152 -168 140 -168 -2 0 -17 5 -33 11 -37 15 -133 28 -138 19 -2 -4 37 -26 88 -50 224 -103 214 -97 285 -183 98 -118 167 -191 255 -268 42 -38 76 -69 75 -69 -2 0 -25 7 -52 15 -27 8 -60 15 -73 15 -34 0 -485 311 -628 434 -66 57 -208 181 -315 276 -107 96 -240 212 -295 259 -153 132 -672 501 -703 501 -6 0 -13 -4 -16 -8 -7 -11 28 -120 53 -170 58 -113 369 -493 761 -927 30 -33 127 -141 215 -240 88 -98 212 -237 276 -308 89 -98 115 -133 112 -150 -7 -36 24 -165 56 -233 50 -106 110 -185 365 -477 145 -166 356 -257 596 -257 280 0 492 126 616 365 20 39 61 107 90 153 30 45 65 105 79 132 l25 49 -28 3 c-39 4 -40 36 -3 110 19 37 28 65 22 72 -5 6 -11 61 -13 121 -4 100 -7 116 -37 175 -42 83 -80 134 -216 295 -61 72 -115 136 -120 144 -4 8 -14 55 -21 105 l-12 91 -2 -60 c-2 -59 -2 -60 -15 -30 -8 17 -18 53 -22 80 l-8 50 -5 -65 -5 -65 -22 41 c-24 45 -43 140 -43 217 0 26 -4 47 -10 47 -9 0 -14 -18 -29 -115 l-8 -50 -16 37 c-42 93 -44 184 -7 296 10 31 17 58 15 60 -1 2 -17 -25 -34 -59 l-31 -62 0 50 c0 27 5 64 11 82 6 18 8 35 4 39 -13 13 -55 -48 -55 -80 0 -40 -9 -31 -21 21 -6 25 -5 50 1 68 10 26 7 25 -25 -12 l-36 -40 5 35 c4 19 10 38 15 43 30 30 293 55 686 67 405 11 684 41 840 89 45 13 152 81 129 81 -17 0 24 16 211 81 33 12 78 33 101 49 23 15 114 51 202 79 281 91 556 241 664 362 83 93 120 119 333 234 264 143 268 146 569 435 222 212 311 313 369 420 49 88 66 160 78 328 11 141 12 145 59 245 63 133 144 335 185 462 19 56 69 182 113 280 126 285 136 331 75 347 -18 5 -33 10 -33 12 0 2 18 44 41 93 23 48 126 291 229 538 104 248 222 521 264 607 115 240 224 490 256 589 34 103 48 226 31 283 -9 36 -7 49 25 135 58 155 78 298 53 394 -7 28 -7 67 -1 117 6 47 6 99 0 139 -9 56 -8 65 10 84 28 31 49 77 57 122 12 75 15 82 39 93 13 6 37 32 52 57 21 37 27 58 26 105 0 33 -5 67 -11 77 -5 10 -15 47 -21 82 -15 82 -38 139 -60 151 -15 8 -29 1 -70 -34 -28 -24 -110 -81 -182 -127 -453 -291 -554 -363 -732 -522 -96 -85 -372 -309 -674 -546 -139 -108 -145 -112 -174 -102 -48 17 -91 13 -170 -15 -116 -42 -155 -66 -538 -338 -275 -196 -312 -227 -367 -313 -33 -52 -37 -55 -49 -38 -8 10 -14 22 -14 27 0 4 -4 8 -10 8 -5 0 -10 -9 -10 -19 0 -11 -4 -23 -10 -26 -6 -3 -10 1 -10 9 0 21 -8 20 -50 -6 -19 -12 -43 -22 -52 -23 -9 -1 -32 -14 -52 -28 -20 -16 -41 -24 -50 -21 -9 4 -24 0 -33 -7 -15 -13 -16 9 -10 301 3 173 11 393 18 488 9 131 9 206 0 305 -17 201 -15 287 10 359 21 59 22 73 15 287 -7 237 -20 328 -61 436 l-23 62 9 629 c4 346 13 769 19 939 5 171 15 445 20 610 6 165 15 347 20 405 31 307 139 540 309 666 45 32 107 74 139 91 60 34 269 106 413 143 46 12 107 33 134 47 28 15 57 29 65 33 31 14 43 52 31 98 -12 42 -31 58 -31 24 0 -31 -17 -40 -58 -29 -32 8 -53 4 -148 -26 -127 -41 -200 -58 -371 -87 -68 -11 -134 -25 -149 -30 -59 -23 -358 0 -419 33 -16 8 -73 52 -125 97 -107 93 -223 173 -275 190 -24 8 -35 18 -35 31 0 19 -15 26 -23 12z m-1019 -609 c67 -47 490 -224 535 -224 49 0 131 27 222 72 44 22 76 36 70 30 -11 -10 -241 -182 -262 -195 -16 -10 -58 12 -153 78 -94 66 -180 117 -191 113 -11 -4 168 -164 236 -210 63 -42 105 -48 146 -20 14 9 80 73 148 140 120 121 177 161 229 162 19 0 23 -4 20 -27 -2 -20 -15 -34 -53 -56 -27 -16 -85 -59 -128 -95 -69 -58 -83 -77 -118 -150 -40 -83 -49 -135 -14 -75 18 32 40 43 83 43 12 0 39 10 60 23 52 33 97 47 153 47 38 0 51 -4 59 -20 16 -29 6 -37 -53 -45 -67 -9 -90 -20 -175 -89 -95 -77 -123 -120 -138 -214 -19 -115 -17 -222 10 -482 14 -129 30 -309 36 -400 6 -91 15 -192 21 -225 35 -208 131 -688 174 -870 18 -77 48 -207 65 -290 29 -135 51 -223 111 -450 29 -108 28 -118 -39 -340 -28 -95 -31 -120 -46 -415 -29 -552 -37 -680 -56 -900 -10 -118 -24 -291 -31 -385 -10 -154 -14 -173 -37 -208 -14 -20 -26 -36 -27 -35 -5 7 25 971 34 1098 5 80 11 287 13 460 l3 315 -49 120 c-77 190 -74 265 16 457 l40 86 -20 99 c-43 206 -61 302 -77 408 -19 130 -81 447 -96 490 -33 98 -78 411 -104 725 -19 228 -86 571 -140 715 -74 198 -121 268 -202 303 -53 23 -300 85 -408 103 -38 6 -189 12 -335 13 -146 2 -267 4 -269 4 -3 1 8 15 23 31 l27 28 407 6 c224 4 425 3 447 -1 34 -6 49 -18 102 -85 67 -83 78 -85 39 -9 -31 61 -58 88 -191 188 -130 97 -170 137 -162 158 8 20 17 20 45 0z m1268 -120 c33 -24 55 -87 88 -250 l14 -69 -5 111 -6 111 134 6 c73 3 136 4 138 1 3 -2 -12 -37 -32 -77 -48 -94 -54 -126 -72 -371 -8 -113 -19 -225 -24 -248 -24 -105 -31 -340 -31 -1017 0 -394 -5 -822 -11 -951 -19 -399 -20 -391 23 -496 20 -50 44 -131 53 -179 23 -121 24 -304 2 -375 -36 -117 -35 -106 -77 -1200 -6 -146 -13 -290 -16 -320 l-7 -55 -15 35 -15 35 -8 -30 c-4 -16 -11 -43 -14 -59 -5 -22 -9 -26 -18 -17 -8 9 -11 60 -10 174 l2 162 -36 -40 c-19 -22 -43 -56 -54 -75 l-19 -35 6 80 c3 44 26 220 50 390 52 370 68 526 60 580 -3 22 -35 104 -71 181 -35 78 -71 166 -78 195 -17 65 -9 112 58 349 60 210 62 235 70 895 3 292 10 609 15 705 41 744 45 967 27 1269 -9 133 -18 245 -20 247 -2 2 -7 -214 -11 -481 -3 -266 -13 -598 -21 -737 -32 -546 -36 -607 -46 -738 -6 -74 -14 -313 -18 -530 l-7 -395 -55 -129 c-47 -113 -54 -125 -57 -95 -5 73 -24 162 -53 256 -58 190 -180 723 -219 965 -11 67 -25 150 -30 183 -16 101 -91 642 -121 875 -49 391 -49 390 -38 495 6 58 17 111 26 125 30 47 167 191 194 206 16 8 41 14 56 14 37 0 95 16 115 32 9 7 19 23 23 35 5 19 3 22 -11 16 -11 -4 -23 2 -35 18 -16 22 -24 24 -94 22 -54 -1 -85 -7 -108 -21 -40 -23 -127 -53 -127 -43 0 15 59 97 93 130 19 18 70 56 113 85 82 54 85 57 104 123 l13 42 91 -46 c50 -25 105 -56 122 -69z m3534 -3421 c0 -56 -1 -58 -52 -107 -84 -81 -510 -417 -1048 -827 -270 -206 -301 -227 -361 -243 -129 -34 -227 -109 -314 -241 l-55 -83 -63 -4 c-96 -6 -15 75 -812 -818 -694 -778 -866 -970 -870 -970 -2 0 -18 46 -35 103 -57 185 -63 192 -166 185 -53 -3 -82 -13 -170 -57 -126 -64 -156 -92 -181 -168 l-20 -58 -63 -7 c-128 -14 -270 -75 -316 -135 -100 -132 -172 -480 -188 -913 l-6 -145 16 65 c9 36 43 182 75 325 93 404 131 543 165 601 41 72 120 128 223 160 25 7 55 14 67 14 20 0 21 -2 10 -57 -14 -78 -13 -683 2 -853 15 -161 22 -223 27 -218 4 3 13 101 40 403 3 33 12 152 20 265 16 228 33 309 92 429 39 78 117 172 164 196 46 24 81 19 116 -17 53 -57 81 -126 153 -383 49 -176 103 -295 157 -348 l39 -37 -12 -73 c-25 -147 -53 -614 -37 -604 6 4 13 32 16 64 17 157 93 508 128 590 42 97 103 120 158 58 32 -37 42 -66 112 -317 23 -87 44 -156 46 -154 2 2 10 68 18 147 39 390 76 657 111 794 32 123 81 171 146 144 52 -22 163 -133 187 -188 26 -61 56 -242 71 -431 25 -309 27 -322 29 -155 0 83 5 155 10 160 5 6 43 86 86 178 79 173 142 280 170 291 58 22 104 -8 130 -85 21 -65 45 -254 52 -418 9 -204 22 -152 43 171 11 163 1 320 -25 380 -20 49 -45 61 -106 53 -27 -4 -49 -4 -49 -2 0 5 188 326 570 972 45 77 151 253 235 390 84 138 205 342 270 455 65 113 132 229 149 259 44 77 159 191 242 239 38 23 76 42 82 42 7 0 12 4 12 9 0 5 -39 7 -87 4 -118 -7 -152 -27 -237 -140 -70 -93 -498 -803 -1156 -1918 -117 -198 -216 -364 -220 -370 -4 -5 -31 -84 -59 -175 -29 -91 -65 -203 -81 -250 l-28 -85 -1 185 c-1 200 -13 275 -55 358 -13 26 -33 56 -45 66 -12 11 -21 23 -21 28 0 13 488 744 700 1048 122 175 373 551 474 708 43 67 106 150 140 184 63 63 168 137 233 164 21 9 32 19 25 23 -8 5 673 613 819 730 l30 24 -10 -26 c-26 -67 -205 -319 -243 -342 -39 -22 -64 -50 -106 -114 -33 -52 -142 -265 -215 -421 -19 -41 -74 -158 -122 -260 -48 -102 -113 -241 -145 -310 -32 -69 -79 -170 -105 -225 -26 -55 -57 -122 -70 -150 -12 -27 -42 -90 -65 -140 -51 -107 -285 -611 -378 -812 l-65 -143 -61 -33 c-52 -29 -65 -42 -89 -90 -31 -63 -84 -260 -121 -452 -35 -179 -55 -308 -46 -298 4 4 22 51 40 103 72 209 194 530 230 607 43 92 77 130 126 139 40 7 121 -18 154 -48 22 -20 22 -26 17 -122 -3 -56 -22 -180 -42 -276 -65 -316 -85 -496 -68 -615 l9 -60 7 103 c8 107 33 213 86 362 16 47 35 128 42 180 11 86 16 101 54 155 55 77 128 145 157 145 47 0 99 -21 109 -44 13 -27 -15 -116 -111 -356 -176 -439 -326 -750 -527 -1086 -46 -78 -99 -178 -118 -223 l-35 -83 69 71 c80 83 101 89 130 34 18 -35 13 -55 -25 -103 -104 -133 -322 -328 -502 -448 -101 -68 -773 -487 -942 -587 -266 -158 -780 -397 -1055 -492 -271 -93 -383 -109 -695 -97 -129 5 -314 9 -410 8 -165 -1 -181 -2 -290 -33 -183 -51 -219 -87 -185 -179 44 -116 210 -428 313 -587 101 -156 156 -219 267 -305 244 -189 271 -274 200 -616 -40 -192 -76 -304 -120 -374 -58 -91 -181 -204 -289 -263 -206 -114 -482 -82 -721 83 -95 66 -257 234 -371 385 -99 131 -128 181 -181 319 -65 169 -176 306 -828 1031 -99 110 -200 223 -225 251 -43 48 -180 244 -230 329 l-24 40 45 -41 c57 -52 172 -174 231 -244 63 -76 268 -277 353 -346 39 -32 122 -91 185 -132 131 -85 218 -152 339 -261 104 -94 271 -259 329 -326 49 -56 46 -46 -9 35 -51 75 -113 140 -254 266 -159 142 -228 196 -365 289 -63 43 -153 107 -200 143 -100 78 -329 304 -387 382 -22 30 -100 113 -173 183 -72 71 -129 131 -126 134 12 12 72 -26 161 -102 50 -42 131 -105 180 -141 101 -72 324 -262 636 -540 116 -104 243 -217 282 -252 83 -73 263 -195 357 -242 36 -18 67 -34 68 -35 2 -2 -14 -20 -36 -39 -22 -20 -53 -65 -70 -101 -29 -59 -34 -65 -74 -75 -86 -21 -124 -41 -155 -79 l-33 -39 31 11 c17 7 37 24 45 38 12 24 22 27 104 38 l91 12 39 -34 c22 -18 68 -46 102 -60 l62 -27 -34 36 c-19 21 -48 49 -63 63 -20 18 -31 41 -36 76 l-9 50 -1 -48 c-1 -29 5 -57 16 -73 l16 -25 -36 17 c-42 20 -42 19 -22 87 20 69 56 131 78 135 15 3 49 -6 162 -43 17 -6 16 -3 -5 15 l-25 21 25 -7 c48 -13 145 -67 263 -146 65 -44 121 -77 125 -74 3 3 -5 28 -18 55 -25 55 -56 82 -300 269 -171 131 -243 205 -406 423 -137 182 -180 249 -326 499 -276 475 -351 617 -370 699 -15 70 -15 306 2 506 13 162 10 225 -21 413 l-20 123 30 272 c16 150 33 308 37 352 9 97 18 74 30 -72 9 -113 8 -114 53 117 34 175 54 246 75 275 13 18 16 18 30 5 8 -8 29 -53 46 -100 25 -66 33 -107 37 -183 7 -114 12 -114 67 -3 38 78 35 61 110 527 25 156 46 229 65 229 19 0 22 -42 25 -301 3 -270 8 -307 62 -456 14 -40 29 -73 34 -73 7 0 27 71 100 355 51 199 50 198 58 190 4 -4 9 -91 12 -193 l5 -187 33 -63 c35 -67 66 -177 77 -275 4 -31 11 -60 16 -62 8 -5 37 83 112 340 57 192 73 228 184 393 150 224 250 342 289 342 19 0 18 -65 -1 -145 -21 -84 -19 -87 16 -25 16 30 49 75 73 100 81 85 153 175 222 275 37 55 163 219 279 365 116 146 244 309 284 362 79 107 154 180 298 290 183 139 310 246 357 300 59 66 162 220 210 313 20 39 47 84 61 100 l24 30 1 -62 c0 -42 5 -66 16 -77 21 -21 21 -21 57 17 28 29 31 30 35 12 6 -30 53 -75 78 -75 28 0 38 28 29 77 -8 43 12 217 30 258 13 29 13 27 14 -38 1 -108 18 -154 72 -209 27 -27 55 -48 65 -48 9 0 38 19 64 43 26 24 90 71 141 106 81 55 97 62 127 57 19 -3 36 -7 38 -9 2 -2 -16 -48 -40 -103 -24 -54 -53 -126 -65 -160 -22 -59 -26 -63 -149 -155 -70 -52 -173 -131 -229 -175 -213 -171 -274 -202 -451 -229 -132 -20 -261 -93 -450 -257 -102 -89 -137 -131 -190 -228 -45 -82 -207 -424 -248 -523 -69 -167 -95 -232 -124 -313 -48 -137 -112 -278 -241 -536 -65 -131 -117 -238 -114 -238 4 0 225 314 289 410 67 102 147 300 260 644 62 188 125 364 139 392 75 147 245 360 352 441 86 65 147 91 245 102 240 28 494 187 1045 655 235 199 427 360 481 401 28 22 117 93 197 157 81 65 184 145 231 178 46 34 142 111 213 173 201 176 253 219 377 307 137 98 240 183 400 333 207 195 452 384 718 556 178 115 248 151 296 151 l32 0 0 -57z m15 -175 c-4 -17 -26 -51 -49 -76 -66 -72 -474 -447 -844 -777 -116 -103 -128 -111 -185 -123 -54 -11 -216 -16 -225 -7 -2 2 34 31 80 66 564 427 1083 843 1183 948 24 26 30 29 38 16 5 -9 5 -30 2 -47z m-3650 -193 c38 -96 62 -175 85 -273 17 -78 17 -96 4 -330 -8 -136 -23 -411 -34 -612 -11 -201 -20 -369 -21 -375 0 -5 -4 -1 -9 10 l-8 20 -8 -20 c-10 -27 -67 -115 -74 -115 -13 0 21 192 45 256 14 37 24 69 21 71 -2 2 -30 -35 -62 -82 l-58 -86 -16 43 c-22 61 -17 772 6 1003 9 88 18 239 18 335 2 175 2 175 36 261 l35 86 6 -61 c3 -34 18 -92 34 -131z m3506 -284 c-5 -40 -11 -74 -13 -76 -2 -1 -34 -5 -71 -8 l-69 -5 38 42 c101 108 118 125 121 123 2 -2 -1 -36 -6 -76z m-76 -202 c-57 -95 -124 -229 -388 -774 -165 -341 -173 -359 -507 -1055 -128 -267 -247 -515 -266 -552 l-33 -66 -38 19 c-22 12 -51 19 -70 17 -18 -2 -33 -2 -33 0 0 3 13 28 29 56 75 134 717 1409 841 1671 34 72 102 219 150 328 96 214 150 300 234 373 64 55 130 96 134 84 2 -5 -22 -50 -53 -101z m76 -101 c-7 -49 -23 -92 -64 -169 -69 -128 -222 -487 -867 -2024 -136 -324 -179 -417 -206 -445 l-34 -35 0 79 c0 98 -14 145 -57 196 l-34 40 89 157 c49 87 216 410 372 718 155 308 286 565 290 570 4 6 48 82 97 170 241 429 353 650 407 799 13 36 16 9 7 -56z m-1071 -270 c-100 -100 -211 -265 -936 -1388 -204 -316 -380 -585 -390 -598 -19 -23 -20 -23 -67 -6 -30 10 -65 15 -93 11 -24 -2 -44 -3 -44 -2 0 2 21 39 46 82 92 155 195 334 394 688 480 852 555 976 628 1043 86 79 212 140 382 187 124 34 130 33 80 -17z m-635 23 c-6 -4 -98 -77 -205 -162 -306 -240 -470 -379 -540 -459 -59 -67 -369 -325 -378 -315 -6 6 83 167 143 260 88 136 195 230 535 471 196 140 242 167 330 195 58 19 131 25 115 10z m1632 -244 c-3 -37 -21 -86 -55 -153 -65 -129 -524 -1200 -707 -1649 -47 -115 -89 -220 -94 -231 -7 -16 -21 -23 -53 -26 -24 -3 -44 -4 -45 -4 -2 1 64 156 354 831 122 284 275 620 365 800 85 171 172 349 193 397 22 48 42 88 44 88 2 0 1 -24 -2 -53z m-1774 -309 c-71 -123 -219 -381 -328 -574 l-198 -351 -59 -6 c-34 -3 -82 -16 -112 -31 -59 -29 -112 -85 -539 -573 -136 -156 -251 -283 -255 -283 -7 0 -72 170 -72 190 0 6 96 118 212 248 834 930 1023 1148 1230 1413 36 47 83 98 104 114 43 33 137 86 142 80 2 -2 -54 -104 -125 -227z m-1320 -254 c3 -4 -1 -20 -10 -37 -15 -29 -16 -30 -29 -12 -23 31 -16 55 16 55 9 0 19 -3 23 -6z m763 -726 c-13 -24 -86 -153 -161 -288 -75 -135 -147 -258 -159 -275 -38 -49 -75 -130 -94 -202 -14 -58 -17 -116 -17 -381 l0 -313 -17 123 c-23 168 -40 220 -85 257 -37 30 -105 51 -168 51 -44 0 -68 -24 -92 -89 -10 -28 -20 -51 -23 -51 -3 0 -21 48 -40 106 -19 59 -36 109 -37 113 -2 3 34 49 78 101 219 257 392 467 481 587 113 152 185 220 282 269 38 18 71 34 73 34 2 0 -7 -19 -21 -42z m984 -578 c0 -5 -4 -10 -10 -10 -5 0 -10 5 -10 10 0 6 5 10 10 10 6 0 10 -4 10 -10z m113 -1562 c-8 -46 -18 -109 -24 -140 -11 -63 -47 -151 -84 -206 l-25 -37 0 63 c0 70 -14 107 -36 98 -10 -4 -12 -2 -7 7 4 6 32 48 61 92 30 44 69 108 89 143 19 34 36 62 37 62 2 0 -4 -37 -11 -82z"/>
 <path d="M3946 6339 c-113 -276 -216 -519 -248 -588 -75 -161 -89 -215 -113 -444 -8 -73 -30 -204 -50 -291 -24 -104 -38 -197 -42 -270 -7 -138 10 -196 100 -335 90 -141 108 -163 128 -158 15 4 18 -8 24 -92 l8 -96 20 65 c16 53 21 107 26 282 l6 217 28 28 c15 16 27 32 27 35 0 12 -75 -5 -112 -25 -47 -26 -68 -69 -69 -144 -1 -93 -15 -35 -29 124 -7 78 -17 140 -22 137 -4 -3 -17 -37 -29 -76 -20 -65 -23 -69 -32 -47 -5 13 -11 63 -14 110 -7 113 11 170 98 309 37 59 74 120 82 136 18 37 100 314 95 320 -5 4 -93 -82 -123 -121 -15 -19 -16 -14 -12 60 9 139 47 212 155 293 59 44 99 201 112 442 4 85 6 157 4 159 -2 2 -10 -11 -18 -30z"/>
 <path d="M2680 3064 c0 -25 153 -174 166 -161 10 9 -43 102 -77 135 -21 21 -43 32 -61 32 -15 0 -28 -3 -28 -6z"/>
 <path d="M3093 2720 c3 -8 17 -42 31 -75 14 -33 33 -93 42 -133 18 -82 44 -126 93 -159 30 -21 46 -23 147 -23 90 0 125 -4 166 -20 29 -11 55 -20 58 -20 9 0 -66 59 -82 65 -9 3 -22 21 -28 40 -16 47 -65 112 -103 135 -18 11 -70 32 -117 46 -78 24 -89 31 -149 93 -36 36 -62 59 -58 51z m337 -290 c0 -12 -35 -31 -44 -23 -15 15 -4 33 19 33 14 0 25 -4 25 -10z"/>
 <path d="M6382 14780 c-40 -11 -77 -22 -82 -25 -5 -3 -31 3 -57 15 l-48 21 34 -35 c45 -47 89 -48 171 -5 55 29 83 50 63 48 -4 0 -41 -9 -81 -19z"/>
 </g>
<g id="layer2" fill="#fefefe" stroke="none">
 <path d="M0 8000 l0 -8000 5335 0 5335 0 0 8000 0 8000 -5335 0 -5335 0 0 -8000z m5720 7311 c0 -13 11 -23 35 -31 52 -17 168 -97 275 -190 52 -45 109 -89 125 -97 61 -33 360 -56 419 -33 15 5 81 19 149 30 171 29 244 46 371 87 95 30 116 34 148 26 41 -11 58 -2 58 29 0 34 19 18 31 -24 12 -46 0 -84 -31 -98 -8 -4 -37 -18 -65 -33 -27 -14 -88 -35 -134 -47 -144 -37 -353 -109 -413 -143 -32 -17 -94 -59 -139 -91 -129 -96 -226 -257 -274 -459 -32 -136 -43 -254 -55 -612 -5 -165 -15 -439 -20 -610 -6 -170 -15 -593 -19 -939 l-9 -629 23 -62 c41 -108 54 -199 61 -436 7 -214 6 -228 -15 -287 -25 -72 -27 -158 -10 -359 9 -99 9 -174 0 -305 -7 -95 -15 -315 -18 -488 -6 -292 -5 -314 10 -301 9 7 24 11 33 7 9 -3 30 5 50 21 20 14 43 27 52 28 9 1 33 11 52 23 42 26 50 27 50 6 0 -8 4 -12 10 -9 6 3 10 15 10 26 0 10 5 19 10 19 6 0 10 -4 10 -8 0 -5 6 -17 14 -27 12 -17 16 -14 49 38 55 86 92 117 367 313 383 272 422 296 538 338 79 28 122 32 170 15 29 -10 35 -6 174 102 302 237 578 461 674 546 178 159 279 231 732 522 72 46 154 103 182 127 41 35 55 42 70 34 22 -12 45 -69 60 -151 6 -35 16 -72 21 -82 6 -10 11 -44 11 -77 1 -47 -5 -68 -26 -105 -15 -25 -39 -51 -52 -57 -24 -11 -27 -18 -39 -93 -8 -45 -29 -91 -57 -122 -18 -19 -19 -28 -10 -84 6 -40 6 -92 0 -139 -6 -50 -6 -89 1 -117 25 -96 5 -239 -53 -394 -32 -86 -34 -99 -25 -135 17 -57 3 -180 -31 -283 -32 -99 -141 -349 -256 -589 -42 -86 -160 -359 -264 -607 -103 -247 -206 -490 -229 -538 -23 -49 -41 -91 -41 -93 0 -2 15 -7 33 -12 61 -16 51 -62 -75 -347 -44 -98 -94 -224 -113 -280 -41 -127 -122 -329 -185 -462 -47 -100 -48 -104 -59 -245 -12 -168 -29 -240 -78 -328 -58 -107 -147 -208 -369 -420 -301 -289 -305 -292 -569 -435 -213 -115 -250 -141 -333 -234 -108 -121 -383 -271 -664 -362 -88 -28 -179 -64 -202 -79 -23 -16 -68 -37 -101 -49 -187 -65 -228 -81 -211 -81 23 0 -84 -68 -129 -81 -156 -48 -435 -78 -840 -89 -393 -12 -656 -37 -686 -67 -5 -5 -11 -24 -15 -43 l-5 -35 36 40 c32 37 35 38 25 12 -6 -18 -7 -43 -1 -68 12 -52 21 -61 21 -21 0 32 42 93 55 80 4 -4 2 -21 -4 -39 -6 -18 -11 -55 -11 -82 l0 -50 31 62 c17 34 33 61 34 59 2 -2 -5 -29 -15 -60 -37 -112 -35 -203 7 -296 l16 -37 8 50 c15 97 20 115 29 115 6 0 10 -21 10 -47 0 -77 19 -172 43 -217 l22 -41 5 65 5 65 8 -50 c4 -27 14 -63 22 -80 13 -30 13 -29 15 30 l2 60 12 -91 c7 -50 17 -97 21 -105 5 -8 59 -72 120 -144 136 -161 174 -212 216 -295 30 -59 33 -75 37 -175 2 -60 8 -115 13 -121 6 -7 -3 -35 -22 -72 -37 -74 -36 -106 3 -110 l28 -3 -25 -49 c-14 -27 -49 -87 -79 -132 -29 -46 -70 -114 -90 -153 -124 -239 -336 -365 -616 -365 -240 0 -451 91 -596 257 -255 292 -315 371 -365 477 -32 68 -63 197 -56 233 3 17 -23 52 -112 150 -64 71 -188 210 -276 308 -88 99 -185 207 -215 240 -392 434 -703 814 -761 927 -25 50 -60 159 -53 170 3 4 10 8 16 8 31 0 550 -369 703 -501 55 -47 188 -163 295 -259 107 -95 249 -219 315 -276 143 -123 594 -434 628 -434 13 0 46 -7 73 -15 27 -8 50 -15 52 -15 1 0 -33 31 -75 69 -88 77 -157 150 -255 268 -71 86 -61 80 -285 183 -51 24 -90 46 -88 50 5 9 101 -4 138 -19 16 -6 31 -11 33 -11 12 0 -43 66 -140 168 -96 102 -285 357 -272 369 9 9 75 -38 102 -73 15 -19 30 -34 35 -34 9 0 -104 191 -173 293 -91 133 -199 406 -218 549 -10 75 -33 214 -75 447 -20 116 -29 249 -20 307 l8 49 19 -60 c10 -33 29 -96 43 -140 l24 -80 0 62 c1 43 -9 94 -33 170 -64 204 -71 260 -56 461 7 98 15 197 19 222 l7 45 6 -35 c4 -19 14 -96 23 -170 9 -74 19 -151 22 -170 l6 -35 8 28 c17 62 31 432 21 592 -11 186 -5 252 29 318 l24 47 -3 -72 c-3 -53 2 -94 17 -148 12 -41 24 -115 28 -164 8 -117 18 -86 27 82 4 74 11 156 16 184 16 83 70 139 83 86 5 -18 8 -19 22 -8 13 11 20 9 41 -11 45 -42 66 -96 75 -198 4 -53 9 -100 10 -106 3 -21 48 266 59 375 29 289 48 364 110 427 59 62 80 34 80 -104 0 -82 1 -85 21 -80 22 6 22 5 16 -113 -5 -117 -5 -119 19 -135 23 -15 24 -19 26 -183 l3 -167 23 118 c38 195 58 249 114 312 27 30 56 55 64 55 8 0 22 -17 30 -37 13 -29 15 -70 12 -199 -2 -103 0 -160 7 -154 5 6 12 10 17 10 13 0 28 -73 29 -140 0 -66 17 -135 18 -79 2 47 50 218 78 272 14 29 69 111 122 182 54 72 141 191 195 266 108 151 191 249 210 249 15 0 31 -180 20 -227 -4 -18 -3 -25 3 -18 18 19 189 260 296 418 174 256 443 606 582 756 33 35 169 162 302 282 232 210 242 220 247 261 3 24 13 138 21 253 9 116 20 266 25 335 38 478 71 1034 73 1200 2 197 -5 227 -73 330 -79 119 -84 188 -26 320 90 201 90 202 89 270 -1 36 -16 144 -33 240 -17 96 -38 225 -46 285 -13 99 -87 523 -134 765 -10 52 -21 133 -25 180 -26 337 -67 658 -95 735 -92 261 -143 378 -177 405 -35 27 -172 78 -303 111 -98 25 -151 32 -362 44 -211 12 -258 12 -314 0 -108 -22 -164 6 -164 82 0 50 11 56 27 13 6 -16 16 -30 21 -30 5 0 12 14 16 30 l6 30 182 0 c101 0 289 5 419 12 168 8 247 8 277 1 23 -6 42 -9 42 -7 0 2 -19 13 -42 25 -47 24 -136 84 -181 121 -30 25 -69 120 -60 145 5 13 7 13 15 -1 6 -11 23 -16 54 -16 30 0 56 -7 74 -20 15 -11 63 -35 106 -54 44 -19 134 -62 202 -95 103 -51 131 -61 175 -61 77 0 158 24 287 85 63 30 136 58 161 61 102 14 92 37 -44 97 -140 63 -237 87 -377 94 -63 3 -130 12 -149 19 -19 8 -48 12 -65 9 -17 -3 -38 -1 -46 5 -22 14 1 45 32 43 18 -1 27 6 35 28 18 46 49 52 228 46 111 -4 200 -14 290 -32 72 -14 168 -32 215 -40 l85 -14 -115 3 c-87 3 -130 9 -175 25 -84 31 -305 48 -404 31 -70 -12 -107 -32 -95 -52 16 -25 91 -48 159 -48 188 0 276 -27 571 -170 166 -81 244 -137 244 -177 0 -28 23 -31 174 -25 93 3 129 8 138 19 18 22 -9 35 -57 28 -97 -14 -194 -16 -212 -6 -14 8 -1 10 58 11 41 0 99 7 127 15 45 14 55 14 79 2 26 -14 28 -13 69 38 131 160 294 245 634 330 74 18 146 38 160 43 55 21 79 82 32 82 -23 0 -112 -23 -232 -60 -295 -91 -697 -137 -795 -91 -22 11 -116 80 -210 155 -170 137 -210 161 -225 135 -20 -32 27 -146 105 -259 50 -71 178 -290 173 -295 -2 -2 -43 56 -93 128 -49 71 -114 164 -143 206 -29 42 -71 111 -93 155 -35 68 -39 84 -34 120 4 22 9 44 12 49 8 14 23 7 23 -12z m746 -520 c-3 -5 -33 -23 -66 -40 -82 -43 -126 -42 -171 5 l-34 35 48 -21 c26 -12 52 -18 57 -15 9 6 147 43 163 44 5 1 6 -3 3 -8z"/>
 <path d="M4633 14714 c-8 -21 32 -61 162 -158 133 -100 160 -127 191 -188 39 -76 28 -74 -39 9 -53 67 -68 79 -102 85 -22 4 -223 5 -447 1 l-407 -6 -27 -28 c-15 -16 -26 -30 -23 -31 2 0 123 -2 269 -4 146 -1 297 -7 335 -13 108 -18 355 -80 408 -103 81 -35 128 -105 202 -303 54 -144 121 -487 140 -715 26 -314 71 -627 104 -725 15 -43 77 -360 96 -490 16 -106 34 -202 77 -408 l20 -99 -40 -86 c-90 -192 -93 -267 -16 -457 l49 -120 -3 -315 c-2 -173 -8 -380 -13 -460 -9 -127 -39 -1091 -34 -1098 1 -1 13 15 27 35 23 35 27 54 37 208 7 94 21 267 31 385 19 220 27 348 56 900 15 295 18 320 46 415 67 222 68 232 39 340 -60 227 -82 315 -111 450 -17 83 -47 213 -65 290 -43 182 -139 662 -174 870 -6 33 -15 134 -21 225 -6 91 -22 271 -36 400 -27 260 -29 367 -10 482 15 94 43 137 138 214 85 69 108 80 175 89 59 8 69 16 53 45 -20 38 -131 24 -212 -27 -21 -13 -48 -23 -60 -23 -43 0 -65 -11 -83 -43 -35 -60 -26 -8 14 75 35 73 49 92 118 150 43 36 101 79 128 95 38 22 51 36 53 56 3 23 -1 27 -20 27 -52 -1 -109 -41 -229 -162 -68 -67 -134 -131 -148 -140 -41 -28 -83 -22 -146 20 -68 46 -247 206 -236 210 11 4 97 -47 191 -113 95 -66 137 -88 153 -78 21 13 251 185 262 195 6 6 -26 -8 -70 -30 -91 -45 -173 -72 -222 -72 -45 0 -468 177 -535 224 -28 20 -37 20 -45 0z"/>
 <path d="M5720 14667 c-19 -66 -22 -69 -104 -123 -43 -29 -94 -67 -113 -85 -34 -33 -93 -115 -93 -130 0 -10 87 20 127 43 23 14 54 20 108 21 70 2 78 0 94 -22 12 -16 24 -22 35 -18 14 6 16 3 11 -16 -4 -12 -14 -28 -23 -35 -20 -16 -78 -32 -115 -32 -15 0 -40 -6 -56 -14 -27 -15 -164 -159 -194 -206 -9 -14 -20 -67 -26 -125 -11 -105 -11 -104 38 -495 30 -233 105 -774 121 -875 5 -33 19 -116 30 -183 39 -242 161 -775 219 -965 29 -94 48 -183 53 -256 3 -30 10 -18 57 95 l55 129 7 395 c4 217 12 456 18 530 10 131 14 192 46 738 8 139 18 471 21 737 4 267 9 483 11 481 2 -2 11 -114 20 -247 18 -302 14 -525 -27 -1269 -5 -96 -12 -413 -15 -705 -8 -660 -10 -685 -70 -895 -67 -237 -75 -284 -58 -349 7 -29 43 -117 78 -195 36 -77 68 -159 71 -181 8 -54 -8 -210 -60 -580 -24 -170 -47 -346 -50 -390 l-6 -80 19 35 c11 19 35 53 54 75 l36 40 -2 -162 c-1 -114 2 -165 10 -174 9 -9 13 -5 18 17 3 16 10 43 14 59 l8 30 15 -35 15 -35 7 55 c3 30 10 174 16 320 42 1094 41 1083 77 1200 22 71 21 254 -2 375 -9 48 -33 129 -53 179 -43 105 -42 97 -23 496 6 129 11 557 11 951 0 677 7 912 31 1017 5 23 16 135 24 248 18 245 24 277 72 371 20 40 35 75 32 77 -2 3 -65 2 -138 -1 l-134 -6 6 -111 5 -111 -14 69 c-7 37 -23 104 -35 148 -25 92 -34 101 -175 171 l-91 46 -13 -42z"/>
 <path d="M9362 11205 c-75 -35 -345 -211 -497 -325 -183 -136 -294 -228 -431 -357 -160 -150 -263 -235 -400 -333 -124 -88 -176 -131 -377 -307 -71 -62 -167 -139 -213 -173 -47 -33 -150 -113 -231 -178 -80 -64 -169 -135 -197 -157 -54 -41 -246 -202 -481 -401 -306 -261 -470 -386 -641 -492 -172 -107 -274 -148 -404 -163 -98 -11 -159 -37 -245 -102 -107 -81 -277 -294 -352 -441 -14 -28 -77 -204 -139 -392 -113 -344 -193 -542 -260 -644 -64 -96 -285 -410 -289 -410 -3 0 49 107 114 238 129 258 193 399 241 536 29 81 55 146 124 313 41 99 203 441 248 523 53 97 88 139 190 228 189 164 318 237 450 257 177 27 238 58 451 229 56 44 159 123 229 175 123 92 127 96 149 155 12 34 41 106 65 160 24 55 42 101 40 103 -2 2 -19 6 -38 9 -30 5 -46 -2 -127 -57 -51 -35 -115 -82 -141 -106 -26 -24 -55 -43 -64 -43 -10 0 -38 21 -65 48 -54 55 -71 101 -72 209 -1 65 -1 67 -14 38 -18 -41 -38 -215 -30 -258 9 -49 -1 -77 -29 -77 -25 0 -72 45 -78 75 -4 18 -7 17 -35 -12 -36 -38 -36 -38 -57 -17 -11 11 -16 35 -16 77 l-1 62 -24 -30 c-14 -16 -41 -61 -61 -100 -48 -93 -151 -247 -210 -313 -47 -54 -174 -161 -357 -300 -144 -110 -219 -183 -298 -290 -40 -53 -168 -216 -284 -362 -116 -146 -242 -310 -279 -365 -69 -100 -141 -190 -222 -275 -24 -25 -57 -70 -73 -100 -35 -62 -37 -59 -16 25 19 80 20 145 1 145 -39 0 -139 -118 -289 -342 -111 -165 -127 -201 -184 -393 -75 -257 -104 -345 -112 -340 -5 2 -12 31 -16 62 -11 98 -42 208 -77 275 l-33 63 -5 187 c-3 102 -8 189 -12 193 -8 8 -7 9 -58 -190 -73 -284 -93 -355 -100 -355 -5 0 -20 33 -34 73 -54 149 -59 186 -62 456 -3 259 -6 301 -25 301 -19 0 -40 -73 -65 -229 -75 -466 -72 -449 -110 -527 -55 -111 -60 -111 -67 3 -4 76 -12 117 -37 183 -17 47 -38 92 -46 100 -32 32 -57 -36 -105 -280 -45 -231 -44 -230 -53 -117 -12 146 -21 169 -30 72 -4 -44 -21 -202 -37 -352 l-30 -272 20 -123 c31 -188 34 -251 21 -413 -17 -200 -17 -436 -2 -506 19 -82 94 -224 370 -699 146 -250 189 -317 326 -499 163 -218 235 -292 406 -423 244 -187 275 -214 300 -269 13 -27 21 -52 18 -55 -4 -3 -60 30 -125 74 -118 79 -215 133 -263 146 l-25 7 25 -21 c21 -18 22 -21 5 -15 -113 37 -147 46 -162 43 -22 -4 -58 -66 -78 -135 -20 -68 -20 -67 22 -87 l36 -17 -16 25 c-11 16 -17 44 -16 73 l1 48 9 -50 c5 -35 16 -58 36 -76 15 -14 44 -42 63 -63 l34 -36 -62 27 c-34 14 -80 42 -102 60 l-39 34 -91 -12 c-82 -11 -92 -14 -104 -38 -8 -14 -28 -31 -45 -38 l-31 -11 33 39 c31 38 69 58 155 79 40 10 45 16 74 75 17 36 48 81 70 101 22 19 38 37 36 39 -1 1 -32 17 -68 35 -94 47 -274 169 -357 242 -39 35 -166 148 -282 252 -312 278 -535 468 -636 540 -49 36 -130 99 -180 141 -89 76 -149 114 -161 102 -3 -3 54 -63 126 -134 73 -70 151 -153 173 -183 58 -78 287 -304 387 -382 47 -36 137 -100 200 -143 137 -93 206 -147 365 -289 141 -126 203 -191 254 -266 55 -81 58 -91 9 -35 -58 67 -225 232 -329 326 -121 109 -208 176 -339 261 -63 41 -146 100 -185 132 -85 69 -290 270 -353 346 -59 70 -174 192 -231 244 l-45 41 24 -40 c50 -85 187 -281 230 -329 25 -28 126 -141 225 -251 652 -725 763 -862 828 -1031 53 -138 82 -188 181 -319 114 -151 276 -319 371 -385 239 -165 515 -197 721 -83 108 59 231 172 289 263 44 70 80 182 120 374 71 342 44 427 -200 616 -111 86 -166 149 -267 305 -103 159 -269 471 -313 587 -34 92 2 128 185 179 109 31 125 32 290 33 96 1 281 -3 410 -8 312 -12 424 4 695 97 275 95 789 334 1055 492 169 100 841 519 942 587 180 120 398 315 502 448 38 48 43 68 25 103 -29 55 -50 49 -130 -34 l-69 -71 35 83 c19 45 72 145 118 223 201 336 351 647 527 1086 96 240 124 329 111 356 -10 23 -62 44 -109 44 -29 0 -102 -68 -157 -145 -38 -54 -43 -69 -54 -155 -7 -52 -26 -133 -42 -180 -53 -149 -78 -255 -86 -362 l-7 -103 -9 60 c-17 119 3 299 68 615 20 96 39 220 42 276 5 96 5 102 -17 122 -33 30 -114 55 -154 48 -49 -9 -83 -47 -126 -139 -36 -77 -158 -398 -230 -607 -18 -52 -36 -99 -40 -103 -9 -10 11 119 46 298 37 192 90 389 121 452 24 48 37 61 89 90 l61 33 65 143 c93 201 327 705 378 812 23 50 53 113 65 140 13 28 44 95 70 150 26 55 73 156 105 225 32 69 97 208 145 310 48 102 103 219 122 260 73 156 182 369 215 421 42 64 67 92 106 114 38 23 217 275 243 342 l10 26 -30 -24 c-146 -117 -827 -725 -819 -730 7 -4 -4 -14 -25 -23 -65 -27 -170 -101 -233 -164 -34 -34 -97 -117 -140 -184 -101 -157 -352 -533 -474 -708 -212 -304 -700 -1035 -700 -1048 0 -5 9 -17 21 -28 12 -10 32 -40 45 -66 42 -83 54 -158 55 -358 l1 -185 28 85 c16 47 52 159 81 250 28 91 55 170 59 175 4 6 103 172 220 370 658 1115 1086 1825 1156 1918 85 113 119 133 237 140 48 3 87 1 87 -4 0 -5 -5 -9 -12 -9 -6 0 -44 -19 -82 -42 -83 -48 -198 -162 -242 -239 -17 -30 -84 -146 -149 -259 -65 -113 -186 -317 -270 -455 -84 -137 -190 -313 -235 -390 -382 -646 -570 -967 -570 -972 0 -2 22 -2 49 2 61 8 86 -4 106 -53 26 -60 36 -217 25 -380 -21 -323 -34 -375 -43 -171 -7 164 -31 353 -52 418 -26 77 -72 107 -130 85 -28 -11 -91 -118 -170 -291 -43 -92 -81 -172 -86 -178 -5 -5 -10 -77 -10 -160 -2 -167 -4 -154 -29 155 -15 189 -45 370 -71 431 -24 55 -135 166 -187 188 -65 27 -114 -21 -146 -144 -35 -137 -72 -404 -111 -794 -8 -79 -16 -145 -18 -147 -2 -2 -23 67 -46 154 -70 251 -80 280 -112 317 -55 62 -116 39 -158 -58 -35 -82 -111 -433 -128 -590 -3 -32 -10 -60 -16 -64 -16 -10 12 457 37 604 l12 73 -39 37 c-54 53 -108 172 -157 348 -72 257 -100 326 -153 383 -35 36 -70 41 -116 17 -47 -24 -125 -118 -164 -196 -59 -120 -76 -201 -92 -429 -8 -113 -17 -232 -20 -265 -27 -302 -36 -400 -40 -403 -5 -5 -12 57 -27 218 -15 170 -16 775 -2 853 11 55 10 57 -10 57 -12 0 -42 -7 -67 -14 -103 -32 -182 -88 -223 -160 -34 -58 -72 -197 -165 -601 -32 -143 -66 -289 -75 -325 l-16 -65 6 145 c16 433 88 781 188 913 46 60 188 121 316 135 l63 7 20 58 c25 76 55 104 181 168 88 44 117 54 170 57 103 7 109 0 166 -185 17 -57 33 -103 35 -103 4 0 176 192 870 970 629 706 684 766 717 790 24 18 49 25 95 28 l63 4 55 83 c87 132 185 207 314 241 60 16 91 37 361 243 538 410 964 746 1048 827 51 49 52 51 52 107 l0 57 -32 0 c-18 0 -57 -11 -86 -25z m-5402 -4995 c-13 -241 -53 -398 -112 -442 -108 -81 -146 -154 -155 -293 -4 -74 -3 -79 12 -60 30 39 118 125 123 121 5 -6 -77 -283 -95 -320 -8 -16 -45 -77 -82 -136 -87 -139 -105 -196 -98 -309 3 -47 9 -97 14 -110 9 -22 12 -18 32 47 12 39 25 73 29 76 5 3 15 -59 22 -137 14 -159 28 -217 29 -124 1 75 22 118 69 144 37 20 112 37 112 25 0 -3 -12 -19 -27 -35 l-28 -28 -6 -217 c-5 -175 -10 -229 -26 -282 l-20 -65 -8 96 c-6 84 -9 96 -24 92 -20 -5 -38 17 -128 158 -90 139 -107 197 -100 335 4 73 18 166 42 270 20 87 42 218 50 291 24 229 38 283 113 444 32 69 135 312 248 588 8 19 16 32 18 30 2 -2 0 -74 -4 -159z m-1191 -3172 c34 -33 87 -126 77 -135 -13 -13 -166 136 -166 161 0 3 13 6 28 6 18 0 40 -11 61 -32z m531 -462 c47 -14 99 -35 117 -46 38 -23 87 -88 103 -135 6 -19 19 -37 28 -40 16 -6 91 -65 82 -65 -3 0 -29 9 -58 20 -41 16 -76 20 -166 20 -101 0 -117 2 -147 23 -49 33 -75 77 -93 159 -9 40 -28 100 -42 133 -14 33 -28 67 -31 75 -4 8 22 -15 58 -51 60 -62 71 -69 149 -93z"/>
 <path d="M3380 2427 c0 -21 11 -27 31 -16 27 14 23 29 -6 29 -14 0 -25 -6 -25 -13z"/>
 <path d="M9455 11029 c-100 -105 -619 -521 -1183 -948 -46 -35 -82 -64 -80 -66 9 -9 171 -4 225 7 57 12 69 20 185 123 370 330 778 705 844 777 43 47 62 96 47 123 -8 13 -14 10 -38 -16z"/>
 <path d="M5770 10911 c-34 -86 -34 -86 -36 -261 0 -96 -9 -247 -18 -335 -23 -231 -28 -942 -6 -1003 l16 -43 58 86 c32 47 60 84 62 82 3 -2 -7 -34 -21 -71 -24 -64 -58 -256 -45 -256 7 0 64 88 74 115 l8 20 8 -20 c5 -11 9 -15 9 -10 1 6 10 174 21 375 11 201 26 476 34 612 13 234 13 252 -4 330 -23 98 -47 177 -85 273 -16 39 -31 97 -34 131 l-6 61 -35 -86z"/>
 <path d="M9314 10557 c-21 -23 -56 -61 -78 -83 l-38 -42 69 5 c37 3 69 7 71 8 5 4 23 148 19 152 -2 1 -21 -16 -43 -40z"/>
 <path d="M9286 10405 c-65 -40 -144 -113 -191 -180 -26 -35 -86 -153 -135 -262 -48 -109 -116 -256 -150 -328 -124 -262 -766 -1537 -841 -1671 -16 -28 -29 -53 -29 -56 0 -2 15 -2 33 0 19 2 48 -5 70 -17 l38 -19 33 66 c19 37 138 285 266 552 334 696 342 714 507 1055 264 545 331 679 388 774 31 51 55 96 53 101 -2 5 -20 -2 -42 -15z"/>
 <path d="M9344 10274 c-54 -149 -166 -370 -407 -799 -49 -88 -93 -164 -97 -170 -4 -5 -135 -262 -290 -570 -156 -308 -323 -631 -372 -718 l-89 -157 34 -40 c43 -51 57 -98 57 -196 l0 -79 34 35 c27 28 70 121 206 445 645 1537 798 1896 867 2024 41 77 57 120 64 169 9 65 6 92 -7 56z"/>
 <path d="M8200 9965 c-170 -47 -296 -108 -382 -187 -73 -67 -148 -191 -628 -1043 -199 -354 -302 -533 -394 -688 -25 -43 -46 -80 -46 -82 0 -1 20 0 44 2 28 4 63 -1 93 -11 47 -17 48 -17 67 6 10 13 186 282 390 598 725 1123 836 1288 936 1388 50 50 44 51 -80 17z"/>
 <path d="M7530 9961 c-88 -28 -134 -55 -330 -195 -340 -241 -447 -335 -535 -471 -60 -93 -149 -254 -143 -260 9 -10 319 248 378 315 70 80 234 219 540 459 107 85 199 158 205 162 16 15 -57 9 -115 -10z"/>
 <path d="M9235 9692 c-21 -48 -108 -226 -193 -397 -90 -180 -243 -516 -365 -800 -290 -675 -356 -830 -354 -831 1 0 21 1 45 4 32 3 46 10 53 26 5 11 47 116 94 231 183 449 642 1520 707 1649 34 67 52 116 55 153 3 29 4 53 2 53 -2 0 -22 -40 -44 -88z"/>
 <path d="M7574 9621 c-82 -45 -122 -80 -192 -170 -207 -265 -396 -483 -1230 -1413 -116 -130 -212 -242 -212 -248 0 -20 65 -190 72 -190 4 0 119 127 255 283 427 488 480 544 539 573 30 15 78 28 112 31 l59 6 198 351 c109 193 257 451 328 574 71 123 127 225 125 227 -2 2 -26 -9 -54 -24z"/>
 <path d="M6137 9163 c-11 -10 -8 -28 7 -48 13 -18 14 -17 29 12 9 17 13 33 10 37 -8 8 -38 8 -46 -1z"/>
 <path d="M6894 8446 c-97 -49 -169 -117 -282 -269 -89 -120 -262 -330 -481 -587 -44 -52 -80 -98 -78 -101 1 -4 18 -54 37 -113 19 -58 37 -106 40 -106 3 0 13 23 23 51 24 65 48 89 92 89 63 0 131 -21 168 -51 45 -37 62 -89 85 -257 l17 -123 0 313 c0 265 3 323 17 381 19 72 56 153 94 202 12 17 84 140 159 275 75 135 148 264 161 288 14 23 23 42 21 42 -2 0 -35 -16 -73 -34z"/>
 <path d="M7910 7860 c0 -5 5 -10 10 -10 6 0 10 5 10 10 0 6 -4 10 -10 10 -5 0 -10 -4 -10 -10z"/>
 <path d="M8017 6318 c-20 -35 -59 -99 -89 -143 -29 -44 -57 -86 -61 -92 -5 -9 -3 -11 7 -7 22 9 36 -28 36 -98 l0 -63 25 37 c37 55 73 143 84 206 26 151 37 222 35 222 -1 0 -18 -28 -37 -62z"/>
 </g>

</svg>